<svg xmlns="http://www.w3.org/2000/svg" width="20.29" height="18.84" viewBox="0 0 20.29 18.84">
	<style type="text/css">
		.st0{fill:#231f20;}
	</style>
	<path class="st0" d="M17.01,11.56L3.27,11.56L2.46,8.72L17.82,8.72ZM15.36,17.34L4.93,17.34L3.7,13.06L16.58,13.06ZM19.54,7.22L16.39,7.22L12.98,0.41C12.8,0.04 12.35,-0.1 11.97,0.07C11.6,0.26 11.45,0.71 11.64,1.08L14.71,7.22L5.57,7.22L8.64,1.08C8.83,0.71 8.68,0.26 8.31,0.07C7.94,-0.1 7.49,0.04 7.3,0.41L3.9,7.22L0.74,7.22C0.33,7.22 0,7.56 0,7.97C0,8.39 0.33,8.72 0.74,8.72L0.9,8.72L1.76,11.71C1.57,11.85 1.44,12.06 1.44,12.31C1.44,12.71 1.75,13.02 2.14,13.05L3.79,18.84L16.49,18.84L18.15,13.05C18.53,13.02 18.84,12.71 18.84,12.31C18.84,12.06 18.71,11.85 18.53,11.71L19.38,8.72L19.54,8.72C19.95,8.72 20.29,8.39 20.29,7.97C20.29,7.56 19.95,7.22 19.54,7.22"/>
</svg>