<svg xmlns="http://www.w3.org/2000/svg" width="32.66" height="32.48" viewBox="0 0 32.66 32.48">
	<style type="text/css">
		.st0{fill:#231f20;}
	</style>
	<path class="st0" d="M29.77 -13.9L17.27 -13.9L17.27 0L29.77 0ZM19.25,-27.58C19.8,-28.38 20.46,-29.05 21.13,-29.5C21.81,-29.95 22.5,-30.18 23.18,-30.18L23.19,-30.18C23.76,-30.18 24.3,-29.96 24.68,-29.63C25.06,-29.29 25.25,-28.89 25.25,-28.46C25.25,-27.95 24.98,-27.2 23.79,-26.33C22.65,-25.5 20.69,-24.65 17.66,-24.06C17.95,-25.26 18.51,-26.53 19.25,-27.58M8.71,-25.95C8.09,-26.35 7.71,-26.74 7.49,-27.09C7.27,-27.44 7.2,-27.75 7.19,-28.05C7.19,-28.56 7.44,-29.09 7.89,-29.51C8.32,-29.93 8.91,-30.18 9.45,-30.18L9.46,-30.18C10.14,-30.18 10.83,-29.95 11.51,-29.5C12.52,-28.83 13.48,-27.65 14.15,-26.31C14.49,-25.63 14.76,-24.92 14.94,-24.22C11.86,-24.54 9.86,-25.22 8.71,-25.95M31.07,-23.62L23.74,-23.62C24.26,-23.88 24.72,-24.16 25.13,-24.46C26.72,-25.59 27.56,-27.03 27.55,-28.46C27.56,-29.63 27,-30.66 26.19,-31.36C25.39,-32.06 24.32,-32.48 23.18,-32.48C21.96,-32.48 20.83,-32.06 19.86,-31.41C18.4,-30.43 17.25,-28.96 16.43,-27.35C16.39,-27.27 16.36,-27.19 16.32,-27.11C16.02,-27.73 15.67,-28.33 15.28,-28.9C14.59,-29.89 13.76,-30.76 12.78,-31.41C11.81,-32.06 10.68,-32.48 9.46,-32.48C8.25,-32.48 7.14,-31.97 6.3,-31.19C5.48,-30.4 4.89,-29.3 4.89,-28.05C4.89,-27.32 5.1,-26.56 5.54,-25.86C6.09,-24.99 6.96,-24.23 8.17,-23.62L1.59,-23.62C0.71,-23.62 0,-22.9 0,-22.03L0,-16.13L15.39,-16.13L15.39,-23.62L17.27,-23.62L17.27,-16.13L32.66,-16.13L32.66,-22.03C32.66,-22.9 31.95,-23.62 31.07,-23.62M15.39 -13.9L2.89 -13.9L2.89 0L15.39 0Z"/>
</svg>