<svg xmlns="http://www.w3.org/2000/svg" width="46.57" height="27.33" viewBox="0 0 46.57 27.33">
	<style type="text/css">
		.st0{fill:#000000;}
	</style>
	<path class="st0" d="M43.22 -24.61L3.02 -24.61L3.02 -2.38L43.22 -2.38ZM3.02,-2.38M42.66,-27.33L3.9,-27.33C1.74,-27.33 0,-25.58 0,-23.42L0,-3.9C0,-1.74 1.74,0 3.9,0L42.66,0C44.82,0 46.57,-1.74 46.57,-3.9L46.57,-23.42C46.57,-25.58 44.82,-27.33 42.66,-27.33"/>
	<path class="st0" d="M23.28,8.51C26.22,8.51 28.6,10.89 28.6,13.83C28.6,16.76 26.22,19.14 23.28,19.14C20.35,19.14 17.97,16.76 17.97,13.83C17.97,10.89 20.35,8.51 23.28,8.51M6.92 6.62L39.32 6.62L39.32 21.04L6.92 21.04Z"/>
</svg>