<svg xmlns="http://www.w3.org/2000/svg" width="21.76" height="21.33" viewBox="0 0 21.76 21.33">
	<style type="text/css">
		.st0{fill:#231f20;}
	</style>
	<path class="st0" d="M13.18,7.66C13.39,7.78 13.62,7.88 13.79,8.04C13.87,8.26 14.03,8.41 14.17,8.57C14.23,9.35 14.35,10.06 14.32,10.93C14.06,11.02 13.88,11.2 13.64,11.31C12.86,11.3 12.28,11.1 11.74,10.85C11.57,10.59 11.38,10.35 11.21,10.09L11.21,9.03C11.38,8.84 11.53,8.64 11.66,8.42C11.89,8.3 12.17,8.22 12.12,7.81C12.08,7.75 12.04,7.69 12.04,7.59C12.2,7.63 12.29,7.75 12.42,7.81C12.74,7.83 12.83,7.61 13.18,7.66M14.32,11.46C14.09,11.4 14.18,11.67 13.94,11.61C14.01,11.45 14.06,11.27 14.17,11.15C14.3,11.17 14.34,11.28 14.32,11.46M12.12,14.04C12.15,13.93 12.19,14.05 12.27,14.04C12.25,14.14 12.12,14.11 12.12,14.04M11.36,11.15C11.32,11.12 11.41,11.06 11.44,11.08C11.48,11.12 11.38,11.18 11.36,11.15M10.98,7.21C10.78,7.46 11.02,7.78 11.06,8.04C10.75,8 10.48,7.15 10.98,7.21M9.31,9.33C9.33,9.25 9.39,9.29 9.39,9.33C9.37,9.42 9.31,9.38 9.31,9.33M8.85,11.38C8.9,11.27 8.93,11.38 8.93,11.46C8.89,11.57 8.85,11.46 8.85,11.38M8.78,11.08C8.67,11.01 8.67,10.83 8.63,10.7C8.88,10.62 8.74,10.93 8.78,11.08M12.19,6.75C11.97,6.52 11.52,6.52 11.21,6.37C10.51,6.33 9.99,6.46 9.46,6.6C9.16,6.75 8.85,6.9 8.55,7.05C8.29,7.22 8.11,7.47 7.79,7.59C7.59,7.81 7.44,8.1 7.11,8.19C7.1,8.42 6.94,8.47 6.8,8.57C6.72,8.69 6.71,8.88 6.58,8.95C6.57,9.07 6.61,9.24 6.5,9.26C6.61,10.77 6.79,12.2 7.18,13.43C7.47,14.06 8.16,14.28 8.63,14.72C9.22,15.02 9.95,15.17 10.75,15.25C11.03,15.2 11.31,15.15 11.66,15.18C12.87,14.97 13.76,14.44 14.47,13.74C14.57,13.46 14.73,13.23 14.93,13.05C14.67,12.38 15.22,11.96 15.38,11.46C15.39,10.11 15.18,8.98 14.78,8.04C14.52,7.46 13.86,7.29 13.41,6.9C13.35,6.89 13.26,6.9 13.26,6.83C12.99,6.7 12.53,6.59 12.19,6.75M13.33,4.93C13.22,4.98 13.34,5.02 13.33,4.93M10.52,4.32C10.55,4.34 10.64,4.28 10.6,4.25C10.58,4.22 10.49,4.28 10.52,4.32M11.06,3.94C10.74,3.87 11.04,4.17 11.06,3.94M13.33,4.93C13.87,4.88 14.08,4.51 14.55,4.4C14.83,4.1 15.33,4.02 15.54,3.64C14.98,3.66 14.77,4.04 14.32,4.17C14.04,4.47 13.57,4.58 13.33,4.93M11.06,3.94C11.4,3.81 11.67,3.59 11.89,3.33C11.54,3.47 11.28,3.68 11.06,3.94M11.89,3.33C11.96,3.35 11.96,3.3 11.97,3.26C11.9,3.25 11.9,3.29 11.89,3.33M11.97,3.26C12.03,3.27 12.04,3.23 12.04,3.18C11.98,3.17 11.97,3.21 11.97,3.26M12.04,3.18C12.15,3.14 12.04,3.09 12.04,3.18M12.73,2.57C12.62,2.62 12.73,2.67 12.73,2.57M13.41,3.41C14.14,3.25 14.59,2.82 15.16,2.5C14.72,2.52 14.56,2.82 14.17,2.88C13.95,3.09 13.57,3.14 13.41,3.41M15.16,2.5C15.27,2.45 15.15,2.41 15.16,2.5M14.09,1.89C13.56,2.05 13.08,2.24 12.73,2.57C13.21,2.38 13.79,2.27 14.09,1.89M14.09,1.89C14.2,1.84 14.08,1.8 14.09,1.89M19.94,5.61C19.3,5.49 18.71,5.33 18.04,5.23C18.11,4.9 18.84,5.22 19.03,5.01C19.41,4.78 19.32,4.09 19.33,3.49C19.36,3.14 19.45,2.84 19.41,2.42C19.01,1.47 17.62,2 16.52,1.97C16.3,2.69 16.05,3.77 16.22,4.63C16.39,5.11 17.24,4.92 17.74,5.08C17.6,5.41 17.05,5.14 16.75,5.16C16.45,5.07 16.04,5.1 15.76,5.01C13.48,5.08 11.48,5.01 9.23,5.16C9.35,3.91 9.3,2.69 9.16,1.51L12.27,1.51C11.93,1.88 11.36,2.02 10.98,2.35C10.54,2.59 10.12,2.85 9.84,3.26C10.09,3.39 10.38,3.01 10.6,2.88C10.96,2.81 11.08,2.5 11.44,2.42C11.86,1.99 12.53,1.8 13.11,1.51C13.48,1.49 13.8,1.53 14.09,1.59C15.38,1.6 16.55,1.72 17.89,1.66C18.5,1.81 19.34,1.73 19.86,1.97C19.97,2.27 20.09,2.55 20.17,2.88C20.18,3.88 20.02,4.71 19.94,5.61M19.56,16.77C19.45,17.73 19.4,18.74 19.18,19.58C16.29,19.7 13.16,19.59 10.3,19.73C10.1,19.78 10.02,19.7 10.07,19.51C9.82,19.51 9.81,19.75 9.54,19.73C9.74,19.4 9.98,18.84 9.69,18.44C8.89,18.46 8.89,19.27 8.55,19.73C7.87,19.68 7.41,19.86 6.73,19.81C6.91,19.1 7.48,18.79 7.64,18.06C7.24,17.52 6.65,18.2 6.43,18.52C6.22,19 5.87,19.33 5.67,19.81L4.68,19.81C4.92,19.34 5.17,18.88 5.44,18.44C5.61,17.93 6.06,17.7 6.12,17.08C5.96,16.8 5.7,17.05 5.44,17.08C5.32,17.26 5.17,17.41 5.06,17.61C4.83,17.98 4.56,18.32 4.37,18.75C4.19,18.95 4.04,18.75 3.84,18.97C3.46,19.25 3.26,19.71 2.86,19.96C2.68,19.9 2.9,19.6 3.01,19.58C3.06,19.4 2.91,19.03 3.08,18.97C3.15,18.61 3.3,18.33 3.46,18.06C3.58,17.32 3.99,16.86 4.15,16.17C3.59,16.26 3.47,16.81 3.16,17.15C2.95,17.6 2.62,17.93 2.48,18.44C2.3,18.31 2.45,17.86 2.4,17.61C2.52,17.02 2.7,16.49 2.78,15.86C2.91,15.64 2.95,15.33 3.01,15.03C3.18,14.82 3.06,14.42 2.93,14.27C2.71,14.29 2.56,14.4 2.48,14.57C2.29,14.54 2.28,15.08 2.17,14.87C2.13,12.29 1.72,10.06 1.72,7.43C1.74,7.1 1.54,7.01 1.49,6.75C3.12,6.78 4.61,6.84 6.27,6.98C6.18,7.12 6.07,7.24 5.97,7.36C5.83,7.43 5.74,7.53 5.59,7.66C4.99,9.31 4.62,11.65 4.98,13.81C5.21,14.39 5.57,14.84 5.97,15.25C6.88,15.74 7.6,16.4 8.48,16.93C10.18,17.29 12.32,17.29 14.02,16.93C14.25,16.8 14.5,16.7 14.7,16.54C16.07,15.3 17.45,14.09 17.66,11.68L17.66,10.32C17.46,8.72 16.97,7.41 15.91,6.67C16.25,6.46 17.01,6.72 17.58,6.75C17.81,6.76 18.03,6.76 18.27,6.75C18.68,6.73 19.2,6.7 19.71,6.75C19.86,6.94 19.83,7.29 19.94,7.51C19.88,9.19 19.75,10.81 19.79,12.6C19.89,13.05 19.91,13.58 20.02,14.04C19.93,15.01 19.78,15.93 19.56,16.77M1.34,5.69L1.34,4.09C1.53,3.91 1.73,3.73 1.95,3.56C2.24,4.05 2.12,4.95 2.4,5.46C2.13,5.62 1.65,5.57 1.34,5.69M1.26,2.42C1.49,2.22 1.71,2.01 1.95,1.82C1.92,1.69 2.02,1.68 2.02,1.59L2.25,1.59C2.35,1.97 1.99,1.88 1.95,2.12C1.97,2.24 1.87,2.25 1.87,2.35C1.89,2.68 1.99,2.93 1.95,3.33C1.68,3.34 1.67,3.61 1.34,3.56C1.36,3.13 1.2,2.89 1.26,2.42M1.72,1.66C1.68,1.88 1.39,1.84 1.34,2.04C1.12,1.87 1.42,1.58 1.72,1.66M2.7,1.59C2.73,1.85 2.27,1.91 2.33,1.59ZM3.39,5.31C3.54,5.28 3.5,5.65 3.31,5.54C3.35,5.47 3.39,5.41 3.39,5.31M3.62,1.59C3.65,1.75 3.56,1.79 3.54,1.89C3.37,1.92 3.46,1.67 3.31,1.66C3.34,1.56 3.5,1.6 3.62,1.59M3.62,2.73C3.35,2.78 3.34,2.46 3.46,2.35C3.73,2.29 3.74,2.61 3.62,2.73M3.39,4.78C3.47,4.47 3.42,4.47 3.46,4.09C3.69,4.11 3.72,4.86 3.39,4.78M3.54,3.79C3.34,3.81 3.32,3.26 3.46,3.18C3.79,3.19 3.71,3.68 3.54,3.79M4.07,3.79C4.08,3.68 4.08,3.58 4,3.56C3.92,2.83 4.13,2.15 4,1.59C4.25,1.43 4.76,1.55 5.13,1.51L5.13,2.65C5.05,2.71 4.93,2.75 4.76,2.73C4.7,3.01 5.08,2.86 5.13,3.03C5.14,3.88 5.08,4.81 5.29,5.46C4.72,5.4 4.38,5.57 3.84,5.54C3.94,4.92 3.83,4.1 4.38,3.94C4.36,3.8 4.12,3.89 4.07,3.79M6.43,5.01C6.6,4.98 6.51,5.22 6.65,5.23C6.64,5.43 6.37,5.41 6.27,5.31C6.31,5.2 6.39,5.12 6.43,5.01M6.58,4.78C6.52,4.92 6.5,4.73 6.5,4.63C6.56,4.49 6.58,4.67 6.58,4.78M6.58,3.41C6.45,3.34 6.41,3.17 6.43,2.96C6.56,3.02 6.59,3.19 6.58,3.41M6.43,1.59C6.51,1.58 6.56,1.6 6.58,1.66C6.76,1.92 6.59,2.35 6.5,2.58C6.33,2.4 6.47,1.89 6.43,1.59M7.11,3.18C6.99,2.92 7.04,2.49 7.03,2.12C7.03,1.84 7.31,1.84 7.34,1.59C7.33,1.51 7.24,1.53 7.18,1.51C7.31,1.37 7.89,1.42 8.02,1.51C8.15,2.05 7.66,1.97 7.49,2.2C7.5,2.36 7.81,2.23 7.94,2.27C7.97,3.13 7.89,3.77 7.94,4.47L7.49,4.47C7.48,4.71 7.72,4.7 7.94,4.7C7.89,4.99 8.04,5.06 8.02,5.31C7.79,5.46 7.3,5.35 6.96,5.38C6.85,4.79 7.19,4.01 7.11,3.18M8.78,5.92C9.54,5.76 10.26,5.57 11.21,5.61C11.92,5.69 12.49,5.89 13.11,6.07C13.22,6.25 12.86,6.61 13.26,6.75L13.26,6.83C13.32,6.84 13.41,6.83 13.41,6.9C13.86,6.94 14.2,7.07 14.47,7.28C14.92,7.34 15.01,7.76 15.61,7.66C15.52,7.87 15.53,8.19 15.54,8.5C15.86,9.68 16.01,11.31 15.84,12.75C15.67,12.91 15.62,13.19 15.54,13.43C15.23,13.75 15.05,14.22 14.7,14.49C14.61,14.73 14.45,14.9 14.25,15.03C14.13,15.24 14.04,15.48 13.79,15.56C13.49,15.72 13.21,15.57 12.95,15.48C12.51,15.64 12.05,15.79 11.74,16.09C10.92,15.99 10.09,15.91 9.31,15.78C9.07,15.65 8.82,15.51 8.48,15.48C8.25,15.28 7.98,15.12 7.64,15.02C7.54,14.9 7.3,14.91 7.18,14.8C6.99,14.77 6.96,14.57 6.73,14.57C6.61,14.16 6.29,13.95 6.2,13.51C5.97,13.18 5.89,12.7 5.74,12.29C5.7,10.86 5.83,9.6 6.12,8.5C6.47,7.9 6.9,7.4 7.26,6.83C7.51,6.85 7.62,6.74 7.64,6.52C7.95,6.57 8.07,6.45 8.32,6.45C8.58,6.37 8.59,6.06 8.78,5.92M21.76,12.14C21.75,9.75 21.42,7.35 21.46,5.01C21.43,4.22 21.37,3.47 21.31,2.73C21.2,2.43 21.19,2.03 21.15,1.66C20.89,1.5 20.93,1.02 20.7,0.83C20.27,0.6 19.5,0.72 18.95,0.6C18.3,0.58 17.7,0.49 17.05,0.45C15.12,0.35 13.08,0.37 11.06,0.37C9.06,0.37 7.1,0.23 5.36,0L3.16,0C3.06,0 3.06,0.09 2.93,0.07C2.33,0.1 1.86,0.26 1.34,0.37C1.13,0.49 0.92,0.61 0.66,0.68C0.52,0.87 0.14,0.82 0.05,1.06C-0.13,1.27 0.23,1.51 0.05,1.66L0.05,2.58C0.22,2.71 0.08,3.16 0.12,3.41L0.12,4.4C0.11,5.68 0.26,6.8 0.2,8.12C0.67,10.88 0.57,14.65 0.28,17.53C0.43,18.11 0.64,18.64 0.73,19.28C0.99,19.76 1.07,20.41 1.41,20.8C1.92,21 2.65,20.98 3.31,21.02C3.7,21.12 3.98,21.32 4.45,21.33C7.3,21.12 9.95,21.18 12.88,21.1C15.58,21.34 18.68,21.29 21.15,20.87C21.35,20.74 21.28,20.34 21.38,20.11C21.33,19.73 21.59,19.66 21.61,19.35C21.74,16.96 21.77,14.57 21.76,12.14"/>
</svg>