<svg xmlns="http://www.w3.org/2000/svg" width="40.21" height="62.41" viewBox="0 0 40.21 62.41">
	<style type="text/css">
		.st0{fill:#000000;}
	</style>
	<path class="st0" d="M15.17,37.95C14.89,38.92 14.93,40.14 15.2,41.59C15.69,44.23 16.89,47.63 17.56,51.26L22.62,51.26C23.32,47.62 24.57,44.21 25.09,41.58C25.38,40.13 25.42,38.92 25.13,37.96C24.86,37.06 24.24,36.34 23.11,35.66L17.11,35.66C16.04,36.34 15.44,37.05 15.17,37.95"/>
	<path class="st0" d="M27,57.95L13.21,57.95C11.91,57.95 10.91,58.92 10.91,60.18L10.91,62.41L13.21,62.41L27,62.41L29.3,62.41L29.3,60.18C29.3,58.92 28.3,57.95 27,57.95"/>
	<path class="st0" d="M34.14,2.22L22.41,2.22C22.41,0.98 21.39,0 20.1,0C18.82,0 17.8,0.98 17.8,2.22L6.07,2.22L0,27.74C0.79,27.28 1.58,26.75 2.63,26.75C3.99,26.75 4.87,27.57 5.55,28.12C6.23,28.68 6.71,28.97 7,28.97C7.29,28.97 7.77,28.69 8.45,28.14C9.13,27.59 10.01,26.78 11.36,26.78C12.71,26.78 13.6,27.58 14.28,28.13C14.97,28.68 15.44,28.97 15.73,28.97C15.88,28.97 16.07,28.9 16.31,28.76C16.56,28.62 16.84,28.41 17.19,28.13C17.7,27.72 18.32,27.16 19.18,26.91C19.46,26.83 19.77,26.78 20.1,26.78C21.45,26.78 22.34,27.58 23.02,28.13C23.71,28.68 24.18,28.97 24.48,28.97C24.76,28.97 25.24,28.68 25.92,28.12C26.61,27.57 27.49,26.76 28.85,26.76C30.2,26.76 31.09,27.57 31.77,28.13C32.11,28.4 32.4,28.62 32.64,28.76C32.88,28.9 33.07,28.97 33.21,28.97C33.5,28.97 33.97,28.68 34.65,28.12C35.33,27.56 36.22,26.73 37.58,26.73C38.63,26.73 39.42,27.27 40.21,27.73Z"/>
	<path class="st0" d="M23.52,53.49L16.65,53.49C16,53.49 15.5,53.97 15.5,54.61C15.5,55.24 16,55.72 16.65,55.72L23.55,55.72C24.21,55.72 24.7,55.24 24.7,54.61C24.7,53.97 24.21,53.49 23.55,53.49Z"/>
	<path class="st0" d="M20.1,29.01C19.96,29.01 19.77,29.08 19.52,29.22C19.37,29.31 19.15,29.48 18.96,29.63L18.96,33.36L21.25,33.36L21.25,29.63C20.75,29.25 20.35,29.01 20.1,29.01"/>
</svg>