<svg xmlns="http://www.w3.org/2000/svg" width="66" height="100.8" viewBox="0 0 66 100.8">
	<style type="text/css">
		.st1{fill:#6bc6b3;}
		.st0{fill:#ffffff;}
	</style>
	<path class="st0" d="M56.33,9.22C43.44,-3.07 22.56,-3.07 9.66,9.22C-3.22,21.52 -3.22,41.47 9.66,53.77C9.66,53.77 32.98,75.6 32.98,100.8C32.98,75.6 56.32,53.77 56.32,53.77C69.22,41.47 69.22,21.52 56.33,9.22"/>
	<path class="st1" d="M47.03,45.52C46.4,42.24 47.16,38.57 47.06,35.23C46.94,31.48 46.35,27.75 46.39,23.99C46.43,20.94 46.94,17.81 45.89,14.9C45.96,14.57 46.02,14.24 46.09,13.9C46.36,12.44 41.51,13.21 40.75,14.55C40.27,14.94 40.02,15.41 40.22,15.89C40.28,16.01 40.32,16.13 40.37,16.26C39.45,20.74 38.17,25.08 36.7,29.43C36.14,31.09 35.45,32.72 34.88,34.38C34.07,32.83 33.24,31.3 32.58,29.65C30.66,24.84 28.93,19.99 26.58,15.36C26.85,13.22 22.1,13.45 21.16,15.41C20.03,17.78 20.17,20.17 20.55,22.71C20.97,25.56 21.04,28.37 21.07,31.26C21.14,36.83 21.58,42.38 21.66,47.94C21.16,48.49 21.01,49.18 21.53,49.87C21.76,50.17 22.04,50.4 22.33,50.64C23.6,51.65 27.23,50.79 27.22,48.86C27.2,43.09 26.79,37.33 26.64,31.56C26.62,30.99 26.61,30.43 26.6,29.86C26.68,30.07 26.76,30.27 26.84,30.47C27.74,32.72 28.68,34.9 29.9,36.99C31.11,39.05 31.72,41.27 32.42,43.53C32.16,43.84 32,44.18 32.1,44.52C32.04,44.77 32.2,44.93 32.45,45.03C33.34,45.79 35.03,45.41 35.96,45.02C36.36,44.85 36.75,44.65 37.12,44.42C37.6,44.13 38.35,43.47 38.14,42.8C38.1,42.67 38.06,42.54 38.02,42.41C38.68,40.64 39.01,38.79 39.37,36.91C39.75,34.91 40.46,33.02 41.18,31.13C41.25,31.99 41.33,32.86 41.4,33.72C41.68,37.3 41.45,40.82 41.41,44.4C41.4,45.58 41.48,46.68 41.72,47.84C41.81,48.32 42.23,50.37 42.11,50.48C41.25,51.27 41.5,52.24 42.65,52.5C43.93,52.78 45.56,52.35 46.53,51.46C48.2,49.91 47.41,47.47 47.03,45.52"/>
</svg>