<svg xmlns="http://www.w3.org/2000/svg" width="85.58" height="35.03" viewBox="0 0 85.58 35.03">
	<style type="text/css">
		.st0{fill:#000000;}
	</style>
	<path class="st0" d="M4.18,26.3C4.16,22.82 3.91,19.36 3.82,15.89C3.81,15.55 3.8,15.21 3.8,14.87C3.85,14.99 3.9,15.11 3.95,15.23C4.49,16.58 5.05,17.89 5.78,19.15C6.52,20.39 6.88,21.73 7.3,23.09C7.15,23.27 7.05,23.48 7.11,23.69C7.07,23.84 7.17,23.93 7.32,23.99C7.86,24.45 8.87,24.22 9.43,23.98C9.68,23.88 9.91,23.76 10.13,23.63C10.42,23.45 10.87,23.06 10.74,22.65C10.72,22.57 10.69,22.49 10.67,22.42C11.07,21.35 11.27,20.24 11.48,19.11C11.71,17.9 12.14,16.76 12.58,15.62C12.62,16.14 12.66,16.67 12.7,17.19C12.88,19.34 12.73,21.46 12.71,23.61C12.7,24.32 12.76,24.99 12.9,25.69C12.95,25.97 13.21,27.21 13.13,27.27C12.62,27.75 12.77,28.33 13.46,28.48C14.23,28.65 15.21,28.4 15.79,27.86C16.8,26.93 16.32,25.46 16.09,24.29C15.71,22.32 16.17,20.11 16.11,18.1C16.04,15.84 15.68,13.6 15.71,11.33C15.74,9.5 16.04,7.62 15.41,5.86C15.45,5.66 15.49,5.46 15.53,5.26C15.69,4.38 12.77,4.85 12.31,5.65C12.02,5.89 11.88,6.17 12,6.46C12.03,6.53 12.06,6.6 12.08,6.68C11.53,9.37 10.76,11.99 9.88,14.61C9.54,15.61 9.13,16.58 8.78,17.58C8.29,16.65 7.8,15.73 7.4,14.74C6.24,11.85 5.2,8.92 3.79,6.14C3.95,4.85 1.09,4.99 0.53,6.17C-0.14,7.59 -0.05,9.03 0.16,10.56C0.41,12.28 0.46,13.97 0.48,15.71C0.52,19.05 0.78,22.4 0.83,25.75C0.53,26.08 0.44,26.49 0.75,26.9C0.89,27.09 1.06,27.23 1.23,27.36C1.99,27.98 4.18,27.46 4.18,26.3"/>
	<path class="st0" d="M22.37,7.92C22.28,7.31 18.96,8.01 19.07,8.81C19.33,10.58 19.24,12.37 19.21,14.16C19.18,15.88 19.6,17.44 19.82,19.13C20.05,20.86 19.75,22.63 19.95,24.37C20.04,25.18 20.58,26.68 20.02,27.38C19.67,27.83 21.26,27.67 21.33,27.66C21.98,27.54 22.84,27.33 23.27,26.78C23.82,26.09 23.44,24.74 23.32,23.96C23.05,22.22 23.22,20.42 23.15,18.67C23.09,16.99 22.51,15.42 22.5,13.72C22.49,11.78 22.66,9.86 22.37,7.92"/>
	<path class="st0" d="M25.49,14.57C26.4,17.08 30.14,15.9 32.05,16.04C35.28,16.28 34.32,20.65 34.36,22.68C34.38,23.77 35.35,25.57 34.54,26.48C34.04,27.03 32.87,27.07 32.19,27.13C31.5,27.18 30.33,27.39 29.87,26.74C29.04,25.54 29.95,23.54 29.77,22.17C29.67,21.39 26.35,22.09 26.47,23.05C26.76,25.26 25.3,28.23 28.5,28.61C30.56,28.85 32.87,28.47 34.81,27.82C35.82,27.49 36.76,27.03 37.55,26.31C38.42,25.52 38.13,24.34 37.9,23.33C37.33,20.87 38.51,18.04 36.91,15.87C35.17,13.53 31.95,15.22 29.7,14.58C28.54,14.25 28.52,12.67 28.53,11.72C28.53,10.51 28.43,9.41 28.3,8.22C28.2,7.34 28.28,6.44 28.92,5.78C29.04,5.66 29.65,5.49 29.6,5.49C29.9,5.44 30.18,5.43 30.51,5.42C31.81,5.36 34.39,5.61 33.89,7.51C33.67,8.36 36.92,7.87 37.16,6.97C38.18,3.1 31.02,3.84 29,4.38C27.13,4.87 25.08,5.93 24.97,8.08C24.92,9.11 25.2,10.09 25.25,11.1C25.3,12.27 25.08,13.44 25.49,14.57"/>
	<path class="st0" d="M39.95,16.44C39.9,18.24 39.74,20.03 39.73,21.83C39.72,22.75 39.88,23.67 40.01,24.58C40.13,25.42 40.42,26.55 40.16,27.38C39.96,28.02 43.16,27.62 43.41,26.79C43.87,25.29 43.23,23.39 43.07,21.87C42.93,20.42 43.04,18.93 43.15,17.45C44.85,17.34 46.56,17.2 48.26,17.44C48.34,18.61 48.43,19.76 48.54,20.93C48.63,21.9 48.69,22.87 48.7,23.85C48.72,24.71 48.82,25.95 48.52,26.77C47.87,28.5 51.17,28.36 51.65,27.08C52.24,25.5 52.08,23.54 51.98,21.88C51.85,19.82 51.57,17.77 51.51,15.71C51.4,12.53 50.93,9.39 50.91,6.2C50.91,4.54 47.57,5.1 47.58,6.49C47.59,9.53 48,12.52 48.15,15.56C48.16,15.62 48.16,15.68 48.16,15.74C46.52,15.72 44.88,15.89 43.23,15.95C43.4,12.04 42.72,8.18 42.87,4.28C42.89,3.78 39.61,4.2 39.57,5.16C39.42,8.93 40.06,12.67 39.95,16.44"/>
	<path class="st0" d="M54.03,21.81C53.78,22.07 53.87,22.22 54.07,22.32C54.08,23.79 54.02,25.27 53.9,26.74C53.5,27.37 54.29,27.7 54.81,27.7L54.89,27.7C55.51,27.7 57.1,27.41 57.18,26.55C57.34,24.78 57.39,23.02 57.38,21.25C58.71,19.81 59.81,18.2 60.79,16.5C61.43,17.75 62.04,19.01 62.47,20.37C63.19,22.68 64.41,24.8 65.1,27.12C65.56,28.64 68.86,27.74 68.4,26.23C67.7,23.91 66.55,21.77 65.76,19.48C64.97,17.16 63.77,15.12 62.72,12.91C63.56,11.27 64.42,9.63 65.19,7.95C65.89,6.43 66.41,4.74 67.78,3.66C68.27,3.29 68.25,2.91 67.57,2.86C66.83,2.81 65.83,3.02 65.23,3.49C63.98,4.46 63.19,5.65 62.54,7.08C61.75,8.81 60.94,10.5 60.08,12.2C60.02,12.32 59.96,12.45 59.9,12.57C59.48,12.84 59.24,13.21 59.36,13.64C58.69,14.95 58.01,16.26 57.25,17.52C57,12.86 56.45,8.21 56.28,3.54C56.25,2.47 52.94,3.14 52.99,4.42C53.19,10.21 54.01,15.98 54.07,21.76C54.06,21.78 54.04,21.8 54.03,21.81"/>
	<path class="st0" d="M78.9,15.42C76.97,15.37 75.07,15.07 73.25,15.45C73.16,14.4 73.07,13.35 73,12.3C72.86,10.34 73.09,7.6 74.92,6.4C75.42,6.08 76.34,6.14 76.91,6.03C77.73,5.89 78.55,5.71 79.29,6.19C80.31,6.87 80.06,9.27 80.06,10.3C80.05,11.99 80.23,13.67 80.32,15.35C79.85,15.4 79.38,15.43 78.9,15.42M85.56,15.58C85.39,14.88 84.41,14.86 83.65,14.93C83.64,14.65 83.63,14.36 83.62,14.08C83.51,11.84 83.48,9.55 83.29,7.32C83.12,5.25 81.96,4.51 79.95,4.58C77.91,4.66 75.54,5.03 73.64,5.77C71.45,6.62 70.22,8.24 69.8,10.55C69.34,13.09 70,15.79 70.12,18.34C70.25,21.29 70.17,24.25 70.17,27.2C70.17,27.68 73.47,27.23 73.47,26.31C73.47,23.98 73.5,21.64 73.47,19.3C73.46,18.61 73.42,17.93 73.38,17.24C74.54,16.74 76.49,17.25 77.64,17.36C78.57,17.45 79.46,17.22 80.37,17.12C80.39,19.06 80.46,21.02 80.54,22.97C80.58,23.97 80.94,25.94 80.24,26.77C79.87,27.2 81.49,27.06 81.55,27.05C82.22,26.92 83.03,26.71 83.49,26.17C84.29,25.23 83.88,22.98 83.83,21.85C83.76,20.24 83.74,18.63 83.71,17.02C84.68,16.89 85.75,16.29 85.56,15.58"/>
	<path class="st0" d="M18.7,4.1C18.65,4.28 18.71,4.46 18.81,4.6C18.81,4.64 18.82,4.67 18.82,4.71C18.82,4.81 18.83,4.9 18.83,4.99C18.89,5.19 19.01,5.34 19.19,5.44C19.52,5.64 19.93,5.67 20.3,5.64C20.74,5.6 21.18,5.45 21.55,5.2C21.62,5.14 21.69,5.08 21.76,5.01C22.2,4.73 22.58,4.32 22.37,3.87C21.95,2.94 22.01,1.99 22.02,0.99C22.03,0.19 21.21,-0.05 20.52,0C19.91,0.06 18.7,0.49 18.69,1.28C18.68,2.12 18.63,2.98 18.78,3.81C18.74,3.9 18.72,4 18.7,4.1"/>
	<path class="st0" d="M80.27,33.28C78.71,32.7 76.99,32.67 75.42,32.5C73.82,32.33 72.18,32.09 70.54,31.93C68.9,31.99 67.23,31.96 65.57,32.06L60.69,32.33C54.2,32.62 47.69,32.58 41.17,32.44C34.65,32.32 28.13,31.96 21.54,31.99C18.25,31.99 14.97,32.08 11.68,32.24C10.05,32.52 8.44,32.74 6.77,33.15C5.16,33.55 3.63,34.06 1.98,34.2C3.6,34.56 5.32,34.49 6.94,34.49C8.52,34.5 10.18,34.64 11.81,34.72C15.04,34.55 18.3,34.48 21.55,34.47C28.03,34.44 34.56,34.8 41.11,34.92C47.66,35.06 54.23,35.1 60.79,34.81L65.7,34.54C67.3,34.47 68.9,34.41 70.53,34.47C72.16,34.32 73.78,34.14 75.45,33.94C77.11,33.7 78.67,33.31 80.3,33.43L80.38,33.44L80.38,33.38C80.41,33.2 80.34,33.06 80.34,32.9C80.31,33.03 80.3,33.17 80.27,33.28"/>
</svg>