<svg xmlns="http://www.w3.org/2000/svg" width="17.59" height="17.59" viewBox="0 0 17.59 17.59">
	<style type="text/css">
		.st0{fill:#231f20;}
	</style>
	<path class="st0" d="M2.19,7.69C2.19,4.66 4.66,2.19 7.69,2.19C10.73,2.19 13.19,4.66 13.19,7.69C13.19,10.73 10.73,13.19 7.69,13.19C4.66,13.19 2.19,10.73 2.19,7.69M17.26,15.72L13.85,12.31C14.81,11.02 15.39,9.43 15.39,7.69C15.39,3.44 11.95,0 7.69,0C3.44,0 0,3.44 0,7.69C0,11.95 3.44,15.39 7.69,15.39C9.43,15.39 11.02,14.81 12.31,13.85L15.72,17.26C15.93,17.47 16.14,17.59 16.5,17.59C17.1,17.59 17.59,17.1 17.59,16.49C17.59,16.25 17.53,16 17.26,15.72"/>
</svg>