<svg xmlns="http://www.w3.org/2000/svg" width="59.99" height="59.61" viewBox="0 0 59.99 59.61">
	<style type="text/css">
		.st0{fill:#231f20;}
	</style>
	<path class="st0" d="M29.91,6.57C34.18,6.57 37.63,5.1 37.63,3.28C37.63,1.47 34.18,0 29.91,0C25.64,0 22.18,1.47 22.18,3.28C22.18,5.1 25.64,6.57 29.91,6.57M32.55,36.47L32.55,59.61L59.99,43.68L59.99,20.53ZM37.7,22.6C37.7,24.42 34.24,25.89 29.97,25.89C25.7,25.89 22.24,24.42 22.24,22.6L22.24,18.54L22.27,18.54C22.53,20.25 25.87,21.62 29.97,21.62C34.07,21.62 37.41,20.25 37.68,18.54L37.7,18.54ZM51.34,12.43L51.34,14.89C51.34,16.7 47.88,18.17 43.61,18.17C39.34,18.17 35.88,16.7 35.88,14.89L35.88,10.83L35.91,10.83C36.17,12.54 39.51,13.9 43.61,13.9C47.88,13.9 51.34,12.43 51.34,10.61C51.34,8.8 47.88,7.33 43.61,7.33C43.27,7.33 42.94,7.34 42.61,7.36L37.63,4.47L37.63,7.55C37.63,9.37 34.18,10.84 29.91,10.84C27.23,10.84 24.87,10.26 23.48,9.38C23.28,9.17 23.04,8.98 22.75,8.79C22.38,8.41 22.18,7.99 22.18,7.55L22.18,4.57L17.37,7.36C17.03,7.34 16.68,7.33 16.32,7.33C12.05,7.33 8.59,8.8 8.59,10.61C8.59,12.43 12.05,13.9 16.32,13.9C20.42,13.9 23.77,12.54 24.02,10.83L24.05,10.83L24.05,14.89C24.05,16.7 20.59,18.17 16.32,18.17C12.05,18.17 8.59,16.7 8.59,14.89L8.59,12.46L2.64,15.92L30.17,31.9L57.52,16.02ZM0,43.68L27.43,59.61L27.43,36.26L0,20.32Z"/>
</svg>