<svg xmlns="http://www.w3.org/2000/svg" width="23.49" height="20.16" viewBox="0 0 23.49 20.16">
	<style type="text/css">
		.st0{fill:#231f20;}
	</style>
	<path class="st0" d="M14.85,5.56C15.02,5.7 15.14,5.87 15.37,5.93C15.47,6.15 15.69,6.26 15.96,6.3C16.01,6.15 16.31,6.25 16.33,6.08C16.51,6.06 16.5,5.85 16.63,5.78C16.61,5.23 16.5,4.78 16.26,4.45C15.5,4.03 14.58,4.49 14.85,5.56M20.34,2.52C20.21,2.86 20.11,3.23 19.74,3.34C19.73,3.23 19.62,3.21 19.6,3.12C19.58,2.91 19.8,2.93 19.89,2.82C20.05,2.73 20.14,2.57 20.34,2.52C20.33,2.43 20.44,2.48 20.34,2.52M20.04,8.15C19.89,9.01 19.42,9.56 19,10.16C19.06,10.53 18.9,10.69 18.93,11.04C18.77,11.36 18.64,11.7 18.56,12.08C18.35,12.35 18.23,12.69 18.04,12.97C17.67,13.52 17.26,14.02 16.85,14.53C16.48,15.09 15.94,15.49 15.52,16.01C15.1,16.5 14.58,16.89 14.11,17.34C13.64,17.51 13.22,17.74 12.85,18.01C12.62,18.1 12.39,18.19 12.19,18.31C12.01,18.45 11.69,18.45 11.52,18.6C10.43,18.75 9.22,18.77 7.96,18.75C6.93,18.65 5.85,18.59 4.92,18.38C4,18.19 3.41,17.67 2.63,17.34C2.78,17.1 3.26,17.19 3.59,17.12C3.62,16.96 3.98,17.12 4.03,16.97C4.29,17.03 4.32,16.86 4.55,16.9C5.12,16.7 5.78,16.6 6.26,16.31C6.54,16.17 6.66,15.87 6.92,15.71C6.96,15.52 7.03,15.37 7.15,15.27C7.19,14.99 7.35,14.83 7.29,14.45C7.41,14.24 7.59,14.11 7.59,13.79C7.52,13.64 7.46,13.47 7.29,13.41C7.27,13.22 6.92,13.35 6.85,13.19C6.6,13.23 6.43,13.16 6.26,13.12C6.1,13.08 5.77,13.21 5.74,13.04C4.9,13.02 4.44,12.62 3.89,12.3C4.32,12.04 4.92,11.95 5.22,11.56C5.74,11.49 6.28,11.43 6.33,10.9C6.33,10.18 5.56,10.24 5,10.08C4.22,9.42 3.8,8.41 3.22,7.56C3.46,7.4 3.78,7.34 3.96,7.12C4.41,7.17 4.5,6.87 4.63,6.6C4.65,6.11 4.29,5.99 4.03,5.78C3.78,5.57 3.56,5.32 3.37,5.04C3.36,4.22 3.35,3.39 3.44,2.67C3.5,2.66 3.51,2.7 3.52,2.74C3.74,3.19 4.07,3.52 4.33,3.93C4.86,4.29 5.26,4.78 5.89,5.04C6.34,5.45 7,5.66 7.44,6.08C8.04,6.34 8.6,6.65 9.15,6.97C9.82,7.16 10.2,7.64 11.15,7.56C11.35,7.46 11.54,7.36 11.74,7.26C12,6.81 11.68,6.19 11.89,5.63C12.14,4.98 12.69,4.6 13.15,4.15C13.44,4 13.7,3.82 13.96,3.63C14.31,3.54 14.64,3.42 14.93,3.26C15.3,3.24 15.64,3.19 15.96,3.12L17.22,3.12C17.47,3.17 17.7,3.23 17.96,3.26C18.17,3.4 18.34,3.58 18.63,3.63C19.42,4.33 19.9,5.33 20.04,6.67C19.92,7.16 20.09,7.55 20.04,8.15M23.45,4.08C23.22,3.71 22.54,3.8 22.04,3.71L20.93,3.71C21.07,3.36 21.27,3.06 21.45,2.74C21.5,2.31 21.7,2.01 21.67,1.48C21.8,1.32 21.85,1.07 21.97,0.89C22.07,0.75 22.21,0.41 22.04,0.23C21.99,0 21.75,-0.01 21.45,0C21.36,0.04 21.28,0.08 21.23,0.15C20.78,0.58 20.45,1.16 19.97,1.56C19.96,1.57 19.9,1.56 19.89,1.56C19.8,1.56 19.86,1.61 19.82,1.63C19.67,1.73 19.56,1.79 19.45,1.86C19.16,2.03 18.9,2.3 18.56,2.37C18.03,2.16 17.4,2.05 16.71,2C15.55,2.11 14.4,2.22 13.67,2.75C12.76,3.09 12.19,3.79 11.52,4.38C11.47,4.7 11.18,4.77 11.15,5.12C11.14,5.16 11.14,5.2 11.07,5.19C11.12,5.43 11.02,5.54 11,5.71C11,5.84 11.2,6.14 11,6.23C10.18,6.11 9.51,5.6 8.85,5.26C8.13,4.9 7.38,4.66 6.78,4.15C6.06,3.83 5.52,3.34 5,2.82C4.79,2.51 4.46,2.32 4.33,1.93C3.95,1.77 4.16,1.02 3.59,1.04C3.27,1 3.25,1.24 3.15,1.41C3.08,1.64 2.78,1.64 2.77,1.93C2.77,1.98 2.76,2.02 2.7,2C2.53,3.09 2.17,4 2.18,5.26C2.31,5.68 2.53,6 2.77,6.3C2.36,6.35 2.06,6.52 1.88,6.82C1.83,7.89 2.26,8.47 2.63,9.12C2.76,9.5 2.98,9.8 3.22,10.08C3.24,10.31 3.43,10.37 3.52,10.53C3.53,10.63 3.64,10.65 3.66,10.75C3.62,10.85 3.95,10.93 3.74,10.97C3.32,11.1 2.72,11.04 2.48,11.34C2.37,11.62 2.37,12.17 2.48,12.45C2.51,12.69 2.76,12.71 2.77,12.97C3.27,13.39 3.86,13.72 4.41,14.08C4.98,14.25 5.62,14.35 6.26,14.45C6.16,14.8 5.92,15 5.66,15.19C4.88,15.58 3.82,15.67 2.92,15.93C2.37,15.97 1.97,16.16 1.37,16.16C1.03,16.28 0.51,16.23 0.25,16.38C0.13,16.45 0.15,16.48 0.03,16.6C-0.09,17.01 0.14,17.34 0.48,17.49C0.47,17.74 0.7,17.77 0.85,17.86C0.94,18.04 1.1,18.15 1.29,18.23C1.84,18.7 2.56,18.99 3.22,19.34C4.05,19.53 4.87,19.72 5.74,19.86C6.63,19.98 7.64,19.99 8.55,20.08L9.52,20.08C10.03,20.22 10.75,20.14 11.37,20.16C11.46,20.06 11.69,20.08 11.89,20.08C12.41,19.82 13.08,19.7 13.52,19.34C14.09,19.1 14.51,18.7 15.08,18.45C15.94,17.69 17.01,17.13 17.59,16.08C17.8,15.89 17.95,15.64 18.04,15.34C18.3,15.19 18.42,14.89 18.63,14.67C19.04,14.26 19.34,13.75 19.67,13.27C19.99,12.77 20.25,12.21 20.56,11.71C20.55,11.31 20.87,11.23 20.86,10.82C21.05,10.6 21.03,10.16 21.23,9.93C21.19,9.68 21.26,9.52 21.3,9.34C21.35,8.06 21.25,6.92 21,5.93C21.59,5.78 22.18,5.63 22.63,5.34C23.16,5.15 23.63,4.76 23.45,4.08"/>
</svg>