<svg xmlns="http://www.w3.org/2000/svg" >
  <symbol id="instagram" viewBox="0 0 29.025 28.445">
    <g clip-path="url(#a)" transform="matrix(1.33333 0 0 -1.33333 0 28.445)">
    <path d="M13.188 13.667c.21-.119.44-.217.605-.381.086-.219.245-.363.38-.529.059-.778.18-1.492.153-2.354-.258-.098-.44-.27-.684-.381-.78.006-1.357.212-1.896.457-.172.258-.357.504-.534.758V12.3c.17.184.32.39.457.607.227.127.507.201.454.608a.368.368 0 00-.075.228c.158-.045.244-.159.378-.228.323-.019.41.199.761.152m1.139-3.796c-.235.057-.146-.208-.38-.152.07.159.119.338.229.455.133-.019.171-.13.15-.303m-2.2-2.581c.033.109.065-.008.151 0-.019-.097-.15-.076-.152 0m-.759 2.885c-.04.038.054.096.076.076.04-.039-.055-.098-.076-.076m-.38 3.947c-.203-.258.041-.576.077-.836-.305.039-.573.888-.077.836m-1.67-2.125c.015.086.075.042.075 0-.014-.087-.075-.043-.075 0M8.86 9.946c.041.117.08.006.076-.075-.04-.117-.079-.005-.076.075m-.075.305c-.114.063-.11.244-.153.379.256.078.118-.236.153-.379m3.415 4.327c-.222.232-.675.234-.986.379-.697.038-1.222-.093-1.746-.228l-.91-.454c-.266-.166-.445-.418-.76-.532-.205-.224-.351-.51-.683-.607-.004-.223-.173-.282-.304-.379-.09-.115-.094-.312-.227-.381-.008-.12.035-.29-.077-.303.11-1.511.291-2.948.683-4.177.287-.623.976-.845 1.442-1.29.59-.296 1.328-.444 2.126-.531.278.052.553.106.911.076a5.09 5.09 0 012.81 1.442c.1.281.252.508.455.683-.254.671.293 1.098.455 1.596.002 1.344-.2 2.481-.607 3.415-.256.579-.92.752-1.366 1.139-.058.017-.15.003-.151.076-.268.131-.732.233-1.064.076m1.139 1.821c-.11-.046.006-.091 0 0m-2.81.608c.021-.021.115.037.076.077-.02.021-.115-.037-.076-.077m.533.38c-.316.073-.016-.228 0 0m2.276-.988c.534.049.75.416 1.215.532.284.298.784.381.988.759-.56-.023-.766-.399-1.216-.531-.284-.296-.75-.413-.987-.76m-2.276.988c.346.134.613.347.834.607a2.043 2.043 0 01-.834-.607m.834.607c.064-.014.072.03.077.076-.066.014-.072-.029-.077-.076m.077.076c.064-.014.07.031.075.076-.064.014-.072-.03-.075-.076m.075.076c.111.046-.007.092 0 0m.683.608c-.11-.047.007-.092 0 0m.684-.836c.726.158 1.18.591 1.746.911-.437-.018-.592-.32-.988-.379-.215-.216-.599-.26-.758-.532m1.746.911c.11.047-.008.092 0 0m-1.063.607c-.529-.154-1.018-.348-1.367-.682.484.198 1.06.306 1.367.682m0 0c.11.048-.009.092 0 0m5.845-3.719c-.639.12-1.233.284-1.898.379.073.333.8.01.988.227.384.223.295.921.303 1.519.034.347.116.643.078 1.063-.403.951-1.785.421-2.887.455-.225-.717-.47-1.799-.304-2.656.17-.49 1.026-.293 1.52-.456-.14-.332-.69-.058-.988-.076-.296.083-.707.052-.986.151-2.286-.077-4.285-.004-6.53-.151.117 1.247.063 2.465-.076 3.644h3.112c-.344-.364-.912-.506-1.29-.835-.44-.244-.86-.505-1.139-.911.25-.133.535.245.76.379.354.074.478.381.834.455.424.439 1.097.626 1.67.912.379.023.698-.013.988-.076 1.282-.008 2.455-.127 3.795-.076.614-.145 1.45-.069 1.974-.304.107-.297.231-.579.304-.911.01-.996-.146-1.826-.227-2.732m-.38-11.16c-.109-.954-.158-1.968-.379-2.809-2.89-.123-6.019-.005-8.883-.153-.199-.045-.273.031-.228.228-.253 0-.258-.247-.532-.228.202.336.438.898.152 1.291-.797-.013-.797-.822-1.138-1.291-.685.052-1.137-.127-1.823-.075.181.705.75 1.021.911 1.745-.395.549-.989-.138-1.214-.455-.203-.481-.556-.81-.76-1.29h-.986c.238.468.49.925.76 1.366.17.511.624.741.681 1.367-.157.28-.419.029-.682 0-.123-.182-.273-.335-.38-.531-.232-.376-.5-.714-.684-1.14-.18-.208-.335-.003-.53-.227-.389-.271-.58-.736-.988-.987-.174.06.04.357.153.38.046.181-.096.55.075.607.064.367.212.648.38.911.118.742.521 1.199.683 1.898-.559-.099-.674-.643-.987-.987-.213-.446-.542-.773-.683-1.291-.174.131-.028.58-.076.836.122.586.298 1.119.38 1.746.132.22.172.535.228.834.168.209.046.61-.077.761-.226-.028-.374-.133-.455-.304-.192.032-.193-.506-.304-.304-.045 2.587-.45 4.813-.456 7.439.027.33-.182.424-.227.684a71.245 71.245 0 004.783-.228c-.089-.139-.199-.257-.304-.379-.144-.071-.226-.173-.379-.304-.604-1.653-.975-3.984-.607-6.15.228-.58.59-1.03.986-1.442.907-.485 1.635-1.149 2.506-1.671 1.701-.361 3.84-.369 5.541 0 .236.12.484.226.685.38 1.365 1.242 2.753 2.459 2.96 4.86v1.367c-.197 1.597-.688 2.905-1.747 3.643.331.22 1.1-.043 1.67-.076a5.78 5.78 0 01.685 0c.408.024.928.055 1.443 0 .144-.186.114-.544.228-.76-.062-1.683-.193-3.299-.153-5.087.103-.454.127-.986.229-1.441a16.93 16.93 0 00-.456-2.733M1.344 15.641v1.593c.196.185.396.365.608.533.295-.49.178-1.392.455-1.898-.276-.156-.751-.11-1.063-.228m-.076 3.264c.226.205.45.41.684.608-.022.122.07.131.076.227h.228c.102-.381-.26-.296-.304-.531.02-.122-.073-.131-.076-.227.02-.336.122-.588.076-.988-.27-.008-.276-.28-.608-.227.024.428-.134.674-.076 1.138m.456.759c-.034-.219-.326-.179-.38-.379-.214.17.084.468.38.379m.986.076c.029-.259-.438-.32-.378 0zm.684-3.72c.148.03.11-.345-.076-.228.04.062.079.124.076.228m.228 3.72c.033-.158-.052-.2-.076-.304-.175-.023-.084.219-.228.229.024.103.19.063.304.075m0-1.138c-.263-.054-.273.266-.153.379.263.054.272-.266.153-.379m-.228-2.05c.077.311.034.303.075.682.229-.012.26-.769-.075-.682m.152.987c-.204-.021-.216.534-.077.607.328-.006.249-.5.077-.607m.532 0c.006.108.012.214-.077.228-.072.733.13 1.415 0 1.973.25.155.769.042 1.139.077v-1.139c-.088-.064-.203-.101-.38-.076-.053-.281.325-.132.38-.304.008-.853-.056-1.777.152-2.429-.565.059-.906-.107-1.442-.076.097.612-.018 1.435.53 1.594-.01.141-.256.047-.302.152m2.353-1.216c.175.025.084-.218.228-.227-.01-.193-.284-.179-.38-.076.039.112.113.192.152.303m.152.229c-.058-.139-.082.045-.076.152.058.138.08-.046.076-.152m0 1.366c-.132.07-.168.237-.152.456.132-.07.168-.238.152-.456M6.43 19.74c.089.013.134-.016.152-.076.179-.253.009-.683-.076-.911-.174.179-.027.682-.076.987m.683-1.594c-.117.263-.067.692-.075 1.063-.007.284.277.278.303.531-.003.074-.092.059-.152.076.127.146.7.097.835 0 .132-.537-.355-.455-.531-.683.01-.168.322-.032.456-.076.029-.854-.06-1.496 0-2.202h-.456c-.007-.234.228-.226.456-.228-.06-.286.092-.363.075-.607-.226-.153-.716-.043-1.062-.076-.103.594.236 1.375.15 2.202m1.672-2.733c.757.153 1.48.341 2.428.304.71-.075 1.287-.282 1.898-.455.116-.184-.243-.547.153-.684v-.076c.059-.017.15-.002.152-.076.445-.035.793-.167 1.063-.379.45-.055.536-.476 1.138-.38-.091-.213-.084-.524-.075-.835.324-1.183.474-2.81.302-4.252-.164-.163-.215-.442-.302-.683-.311-.322-.482-.785-.836-1.062a1.08 1.08 0 00-.455-.533c-.116-.213-.206-.452-.457-.531-.297-.163-.577-.01-.834.077-.446-.162-.904-.312-1.214-.608-.817.096-1.65.175-2.43.304-.242.139-.487.273-.835.305a1.997 1.997 0 01-.836.455c-.101.127-.337.118-.455.228-.198.03-.23.227-.456.229-.118.412-.442.618-.531 1.061-.226.331-.308.805-.455 1.215-.043 1.434.09 2.692.379 3.796.346.591.779 1.094 1.138 1.67.249-.021.365.09.38.304.306-.053.434.072.684.075.255.074.266.391.456.531m12.98-6.225c-.012 2.395-.343 4.789-.302 7.135a37.944 37.944 0 01-.152 2.279c-.105.299-.111.699-.152 1.062-.26.17-.222.64-.456.836-.423.233-1.202.113-1.744.227-.658.026-1.254.115-1.9.152-1.935.101-3.973.076-5.996.076-2.001 0-3.954.145-5.695.379H3.166c-.097-.004-.105-.098-.227-.076-.6-.034-1.077-.188-1.595-.303-.21-.119-.421-.236-.683-.305-.136-.192-.513-.144-.607-.379-.186-.211.185-.451 0-.607v-.911c.174-.13.028-.58.075-.835v-.987c-.016-1.281.134-2.398.077-3.72.467-2.762.374-6.537.076-9.413.155-.579.363-1.106.455-1.746.256-.479.335-1.133.683-1.52C1.922.326 2.653.347 3.318.304 3.7.206 3.985.011 4.458 0 7.3.21 9.954.154 12.884.229c2.704-.241 5.802-.189 8.276.227.195.134.128.529.227.76-.055.385.207.449.228.759.133 2.392.165 4.787.15 7.213"/>
  </g>
  </symbol>
  <symbol id="facebook" viewBox="0 0 19.949 36.958"><g clip-path="url(#a)" transform="matrix(1.33333 0 0 -1.33333 0 36.958)">
    <path d="M7.845 17.743c.117-.254.254-.486.414-.698.079-.022.203-.003.205-.1a10.315 10.315 0 013.096.299c0-.998-.271-1.733-.518-2.492-.662-.045-1.467-.3-1.958-.198-.276-.165-.372-.506-.62-.698-.05-.442.142-.495 0-.797-.201-.137-.055-.611-.205-.796v-1.496c.085-.281-.145-.258-.103-.497V6.782c-.085-.282.146-.258.103-.498v-2.99c.064-.27-.132-.791.103-.896-.071-.364-.413.02-.825-.1-.528-.122-.925-.37-1.547-.4.117.352.32.622.31 1.096.049.38-.365.312-.516.499.194.643.563 1.117.722 1.792.197.515.714 1.298.31 1.794-.523.106-.522-.293-.826-.398-.023-.077-.002-.196-.103-.2-.023-.076-.003-.196-.103-.198.01-.121-.151-.062 0 0 .023.078.002.197.103.199.023.077.002.197.103.199v.299c.368.575.669 1.214.826 1.993.19.28.283.656.412.997.156.262.34.869.104 1.195-.516-.033-.796-.295-.93-.697-.32.19.162.434.105.697.138.232.169.567.309.797.202.413.564 1.304 0 1.596-.438.023-.613-.207-.723-.498-.214-.192-.43-.383-.516-.698-.373.07-.142.726-.206 1.096-.067.52.122.9 0 1.196-.56.798-2.026.105-3.197.298-.108.307-.222.985-.103 1.196 1.045.088 2.478-.201 3.197.199.024.078.003.197.103.199.094.723-.271 1-.514 1.396.232.805.04 2.02.103 2.989.234.14.328.414.515.598.112.955.673 1.475.722 2.492-.274-.002-.608.055-.62-.2-.301.115-.381-.478-.514-.2-.113.542.246.627.308.998.599.418 1.212.82 1.857 1.196 1.74.244 4.648.449 6.086-.198.05-.617-.287-.854-.207-1.497H11.56c-1.092-.24-1.987-.671-2.991-.997-.241-.066-.277-.331-.516-.398-.036-.397-.225-.647-.311-.996-.08-1.44.132-2.596.102-3.986m3.817 4.783c1.027-.03 1.994 0 2.68.3.392.817.557 1.854.62 2.989-.19.014-.062.337-.207.399-.03.202-.278.195-.308.398-.278.165-.457.422-.723.598-.727.16-1.441.335-2.164.498-.85-.044-1.895.103-2.58-.1-2.62.04-3.997-1.12-5.26-2.391-.022-.078-.003-.197-.104-.2-.575-1.586-.125-3.62-.205-5.58.099-.436.108-.96.205-1.395-1-.296-2.212-.386-3.403-.5-.317-.322-.178-1.088-.206-1.692.085-.583.278-1.06.413-1.595.21-.193.596-.396.825-.498.065-.03.072-.082.103-.1.506-.267 1.45-.007 2.268-.1-.137-1.977.255-3.914 0-5.68.006-.326.294-.381.207-.797-.001-.962-.067-1.99.208-2.69-.288-.455-.497-.982-.415-1.794.122-.016.113-.157.104-.3-.074-.47.644-.174.516-.697.162-.456-.428-.184-.413-.498V.204c.53-.285 1.462-.181 2.268-.2.908.42 2.188.48 2.785 1.197.459-.235.916.014 1.239.2-.018.315.273.333.205.698-.004.328-.173.496-.103.896v2.889c-.206 2.293-.048 4.939-.31 7.176.889.105 1.918.075 2.58.398.357.452.377 1.23.515 1.895.177.225.22.583.206.996.19.213.069.729.104 1.096-.141.595-.168 1.299-.825 1.395-.884.235-2.043-.596-2.992-.3.049 1.135-.293 2.343 0 3.389.747.176 1.448.395 2.167.597" />
  </g></symbol>
  <symbol id="twitter" viewBox="0 0 31.325 26.891"><g clip-path="url(#a)" transform="matrix(1.33333 0 0 -1.33333 0 26.89)">
    <path d="M14.857 14.602c.163-.135.284-.31.52-.37.1-.222.313-.328.592-.37.047.15.346.048.37.221.174.023.166.23.296.297-.017.55-.129 1.006-.37 1.333-.758.424-1.676-.038-1.408-1.11m5.483 3.037c-.129-.34-.23-.707-.592-.815-.017.105-.122.125-.148.222-.012.21.21.185.296.296.163.085.245.248.444.297-.006.09.11.046 0 0m-.295-5.632c-.154-.858-.616-1.41-1.039-2 .06-.38-.103-.538-.073-.888a4.327 4.327 0 01-.37-1.038c-.204-.267-.333-.607-.519-.89-.367-.548-.778-1.05-1.186-1.557-.378-.558-.912-.965-1.334-1.48-.42-.494-.942-.886-1.407-1.335a4.967 4.967 0 01-1.26-.667 5.06 5.06 0 01-.667-.296c-.177-.146-.499-.145-.668-.297-1.086-.147-2.3-.17-3.555-.148-1.03.105-2.115.16-3.039.371-.923.19-1.51.712-2.297 1.037.153.242.634.154.963.221.031.166.394.003.444.15.257-.06.285.11.52.073.563.201 1.23.302 1.704.593.282.138.406.433.667.593.033.19.103.34.221.444.048.275.202.441.15.815.11.21.298.343.295.667-.074.148-.128.317-.296.372-.026.196-.378.067-.444.221-.255-.032-.416.03-.593.075-.154.043-.487-.09-.519.074-.842.023-1.3.43-1.853.74.431.262 1.032.352 1.334.742.516.076 1.057.13 1.112.666 0 .717-.77.661-1.333.815-.774.661-1.195 1.672-1.779 2.52.238.157.564.226.74.444.455-.057.54.251.667.52.02.488-.332.605-.592.815a3.47 3.47 0 00-.667.741c-.003.818-.022 1.651.074 2.371.063.014.07-.029.074-.074.226-.44.56-.775.815-1.186.532-.357.925-.853 1.556-1.11.452-.414 1.11-.623 1.557-1.039.6-.263 1.158-.57 1.704-.889.67-.195 1.056-.673 2.001-.593.198.098.393.2.593.297.257.456-.059 1.08.147 1.63.255.66.797 1.031 1.26 1.482.29.155.555.335.815.52.347.096.675.215.964.37.376.018.713.077 1.037.147h1.26c.244-.052.475-.119.74-.148.21-.137.38-.313.666-.37.79-.694 1.271-1.696 1.41-3.039-.124-.485.051-.874 0-1.482m3.408 4.075c-.227.367-.909.278-1.408.372h-1.112c.142.352.343.646.52.963.055.438.254.734.222 1.26.13.166.176.416.296.592.104.145.242.478.074.667-.05.221-.294.248-.592.222a.506.506 0 01-.222-.148c-.448-.433-.778-1.013-1.26-1.408-.01-.008-.062.001-.075 0-.087-.004-.033-.046-.075-.074-.147-.097-.257-.152-.369-.222-.284-.177-.547-.445-.89-.519-.53.211-1.157.326-1.852.37-1.158-.102-2.303-.215-3.039-.74-.91-.35-1.476-1.043-2.149-1.63-.049-.32-.342-.399-.37-.742-.005-.045-.012-.088-.073-.074.043-.24-.05-.345-.075-.518 0-.133.2-.432 0-.52-.822.12-1.485.63-2.149.964-.718.36-1.468.603-2.074 1.111-.716.322-1.26.816-1.778 1.334-.209.311-.542.495-.668.89-.379.164-.175.912-.74.89-.316.042-.345-.2-.445-.372-.07-.226-.36-.232-.37-.518-.005-.046-.012-.089-.075-.075-.17-1.089-.528-1.992-.519-3.26.13-.415.35-.738.593-1.038-.418-.05-.716-.222-.89-.519-.059-1.073.378-1.647.742-2.297.134-.383.351-.684.593-.963.017-.229.206-.288.296-.445.018-.105.122-.125.15-.222-.042-.106.287-.18.072-.22-.413-.132-1.016-.07-1.26-.372-.109-.28-.109-.833 0-1.112.034-.237.283-.26.297-.518.5-.417 1.081-.747 1.631-1.112.574-.166 1.211-.27 1.852-.37-.102-.343-.338-.55-.593-.742-.78-.38-1.849-.473-2.742-.74-.555-.038-.956-.23-1.556-.223C1.04 3.878.518 3.93.26 3.783c-.12-.069-.1-.096-.222-.22-.134-.413.111-.74.444-.89-.005-.254.22-.277.371-.372.09-.182.254-.29.445-.37.544-.468 1.268-.759 1.927-1.112C4.054.636 4.872.443 5.744.3c.895-.116 1.9-.124 2.815-.22h.963c.511-.133 1.231-.055 1.853-.076.094.102.322.074.518.075.523.268 1.196.384 1.631.74.574.241.99.641 1.557.89.866.764 1.936 1.324 2.518 2.372.205.19.351.438.446.74.264.156.384.454.592.667.405.41.706.924 1.037 1.408.32.496.577 1.054.89 1.556-.01.405.306.484.296.89.193.225.177.661.371.888-.033.255.03.415.074.594.047 1.281-.047 2.422-.297 3.407.588.155 1.181.302 1.631.593.526.185.998.582.814 1.26" />
  </g></symbol>
</svg>
